<?xml version="1.0" encoding="UTF-8" standalone="no"?>
<!DOCTYPE svg PUBLIC "-//W3C//DTD SVG 1.1//EN"
 "http://www.w3.org/Graphics/SVG/1.1/DTD/svg11.dtd">
<!-- Generated by graphviz version 5.0.0 (20220707.1540)
 -->
<!-- Title: UmlClassDiagram Pages: 1 -->
<svg width="1620pt" height="1799pt"
 viewBox="0.00 0.00 1620.07 1798.60" xmlns="http://www.w3.org/2000/svg" xmlns:xlink="http://www.w3.org/1999/xlink">
<g id="graph0" class="graph" transform="scale(1 1) rotate(0) translate(4 1794.6)">
<title>UmlClassDiagram</title>
<polygon fill="white" stroke="transparent" points="-4,4 -4,-1794.6 1616.07,-1794.6 1616.07,4 -4,4"/>
<!-- 0 -->
<g id="node1" class="node">
<title>0</title>
<polygon fill="#f2f2f2" stroke="black" points="283.89,-34.1 283.89,-226.1 577.15,-226.1 577.15,-34.1 283.89,-34.1"/>
<text text-anchor="middle" x="430.52" y="-209.5" font-family="Times,serif" font-size="14.00">Migrations</text>
<text text-anchor="middle" x="430.52" y="-192.7" font-family="Times,serif" font-size="14.00">contracts/Migrations.sol</text>
<polyline fill="none" stroke="black" points="283.89,-184.5 577.15,-184.5 "/>
<text text-anchor="start" x="291.89" y="-167.9" font-family="Times,serif" font-size="14.00">Public:</text>
<text text-anchor="start" x="291.89" y="-151.1" font-family="Times,serif" font-size="14.00"> &#160;&#160;owner: address</text>
<text text-anchor="start" x="291.89" y="-134.3" font-family="Times,serif" font-size="14.00"> &#160;&#160;last_completed_migration: uint</text>
<polyline fill="none" stroke="black" points="283.89,-126.1 577.15,-126.1 "/>
<text text-anchor="start" x="291.89" y="-109.5" font-family="Times,serif" font-size="14.00">Public:</text>
<text text-anchor="start" x="291.89" y="-92.7" font-family="Times,serif" font-size="14.00"> &#160;&#160;&#160;&lt;&lt;modifier&gt;&gt; restricted()</text>
<text text-anchor="start" x="291.89" y="-75.9" font-family="Times,serif" font-size="14.00"> &#160;&#160;&#160;constructor()</text>
<text text-anchor="start" x="291.89" y="-59.1" font-family="Times,serif" font-size="14.00"> &#160;&#160;&#160;setCompleted(completed: uint) &lt;&lt;restricted&gt;&gt;</text>
<text text-anchor="start" x="291.89" y="-42.3" font-family="Times,serif" font-size="14.00"> &#160;&#160;&#160;upgrade(new_address: address) &lt;&lt;restricted&gt;&gt;</text>
</g>
<!-- 0&#45;&gt;0 -->
<g id="edge1" class="edge">
<title>0&#45;&gt;0</title>
<path fill="none" stroke="black" stroke-dasharray="5,2" d="M513.96,-34.07C556.71,-19.68 595.15,-51.69 595.15,-130.1 595.15,-202.39 562.48,-235.24 523.88,-228.65"/>
<polygon fill="black" stroke="black" points="524.51,-225.2 513.96,-226.13 522.79,-231.98 524.51,-225.2"/>
</g>
<!-- 1 -->
<g id="node2" class="node">
<title>1</title>
<polygon fill="#f2f2f2" stroke="black" points="318.76,-1084.5 318.76,-1360.5 646.28,-1360.5 646.28,-1084.5 318.76,-1084.5"/>
<text text-anchor="middle" x="482.52" y="-1343.9" font-family="Times,serif" font-size="14.00">ConsumerRole</text>
<text text-anchor="middle" x="482.52" y="-1327.1" font-family="Times,serif" font-size="14.00">contracts/coffeeaccesscontrol/ConsumerRole.sol</text>
<polyline fill="none" stroke="black" points="318.76,-1318.9 646.28,-1318.9 "/>
<text text-anchor="start" x="326.76" y="-1302.3" font-family="Times,serif" font-size="14.00">Private:</text>
<text text-anchor="start" x="326.76" y="-1285.5" font-family="Times,serif" font-size="14.00"> &#160;&#160;consumers: Roles.Role</text>
<polyline fill="none" stroke="black" points="318.76,-1277.3 646.28,-1277.3 "/>
<text text-anchor="start" x="326.76" y="-1260.7" font-family="Times,serif" font-size="14.00">Internal:</text>
<text text-anchor="start" x="326.76" y="-1243.9" font-family="Times,serif" font-size="14.00"> &#160;&#160;&#160;_addConsumer(account: address)</text>
<text text-anchor="start" x="326.76" y="-1227.1" font-family="Times,serif" font-size="14.00"> &#160;&#160;&#160;_removeConsumer(account: address)</text>
<text text-anchor="start" x="326.76" y="-1210.3" font-family="Times,serif" font-size="14.00">Public:</text>
<text text-anchor="start" x="326.76" y="-1193.5" font-family="Times,serif" font-size="14.00"> &#160;&#160;&#160;&lt;&lt;event&gt;&gt; ConsumerAdded(account: address)</text>
<text text-anchor="start" x="326.76" y="-1176.7" font-family="Times,serif" font-size="14.00"> &#160;&#160;&#160;&lt;&lt;event&gt;&gt; ConsumerRemoved(account: address)</text>
<text text-anchor="start" x="326.76" y="-1159.9" font-family="Times,serif" font-size="14.00"> &#160;&#160;&#160;&lt;&lt;modifier&gt;&gt; onlyConsumer()</text>
<text text-anchor="start" x="326.76" y="-1143.1" font-family="Times,serif" font-size="14.00"> &#160;&#160;&#160;constructor()</text>
<text text-anchor="start" x="326.76" y="-1126.3" font-family="Times,serif" font-size="14.00"> &#160;&#160;&#160;isConsumer(account: address): bool</text>
<text text-anchor="start" x="326.76" y="-1109.5" font-family="Times,serif" font-size="14.00"> &#160;&#160;&#160;addConsumer(account: address) &lt;&lt;onlyConsumer&gt;&gt;</text>
<text text-anchor="start" x="326.76" y="-1092.7" font-family="Times,serif" font-size="14.00"> &#160;&#160;&#160;renounceConsumer()</text>
</g>
<!-- 6 -->
<g id="node6" class="node">
<title>6</title>
<polygon fill="#f2f2f2" stroke="black" points="545.31,-1477.5 545.31,-1560.7 781.72,-1560.7 781.72,-1477.5 545.31,-1477.5"/>
<text text-anchor="middle" x="663.52" y="-1544.1" font-family="Times,serif" font-size="14.00">&lt;&lt;Struct&gt;&gt;</text>
<text text-anchor="middle" x="663.52" y="-1527.3" font-family="Times,serif" font-size="14.00">Role</text>
<text text-anchor="middle" x="663.52" y="-1510.5" font-family="Times,serif" font-size="14.00">contracts/coffeeaccesscontrol/Roles.sol</text>
<polyline fill="none" stroke="black" points="545.31,-1502.3 781.72,-1502.3 "/>
<text text-anchor="start" x="553.31" y="-1485.7" font-family="Times,serif" font-size="14.00">bearer: mapping(address=&gt;bool)</text>
</g>
<!-- 1&#45;&gt;6 -->
<g id="edge3" class="edge">
<title>1&#45;&gt;6</title>
<path fill="none" stroke="black" d="M566.93,-1360.88C590.56,-1399.35 614.76,-1438.73 633.02,-1468.45"/>
<polygon fill="black" stroke="black" points="630.27,-1470.67 638.49,-1477.36 636.23,-1467.01 630.27,-1470.67"/>
</g>
<!-- 5 -->
<g id="node7" class="node">
<title>5</title>
<polygon fill="#f2f2f2" stroke="black" points="540.63,-1656.5 540.63,-1790.1 786.4,-1790.1 786.4,-1656.5 540.63,-1656.5"/>
<text text-anchor="middle" x="663.52" y="-1773.5" font-family="Times,serif" font-size="14.00">&lt;&lt;Library&gt;&gt;</text>
<text text-anchor="middle" x="663.52" y="-1756.7" font-family="Times,serif" font-size="14.00">Roles</text>
<text text-anchor="middle" x="663.52" y="-1739.9" font-family="Times,serif" font-size="14.00">contracts/coffeeaccesscontrol/Roles.sol</text>
<polyline fill="none" stroke="black" points="540.63,-1731.7 786.4,-1731.7 "/>
<text text-anchor="start" x="548.63" y="-1715.1" font-family="Times,serif" font-size="14.00">Internal:</text>
<text text-anchor="start" x="548.63" y="-1698.3" font-family="Times,serif" font-size="14.00"> &#160;&#160;&#160;add(role: Role, account: address)</text>
<text text-anchor="start" x="548.63" y="-1681.5" font-family="Times,serif" font-size="14.00"> &#160;&#160;&#160;remove(role: Role, account: address)</text>
<text text-anchor="start" x="548.63" y="-1664.7" font-family="Times,serif" font-size="14.00"> &#160;&#160;&#160;has(role: Role, account: address): bool</text>
</g>
<!-- 1&#45;&gt;5 -->
<g id="edge2" class="edge">
<title>1&#45;&gt;5</title>
<path fill="none" stroke="black" d="M476.64,-1360.88C478.98,-1441.12 492.28,-1541.66 536.52,-1620 542.34,-1630.3 549.64,-1639.97 557.79,-1648.93"/>
<polygon fill="black" stroke="black" points="555.38,-1651.48 564.82,-1656.29 560.45,-1646.65 555.38,-1651.48"/>
</g>
<!-- 2 -->
<g id="node3" class="node">
<title>2</title>
<polygon fill="#f2f2f2" stroke="black" points="663.87,-1084.5 663.87,-1360.5 999.17,-1360.5 999.17,-1084.5 663.87,-1084.5"/>
<text text-anchor="middle" x="831.52" y="-1343.9" font-family="Times,serif" font-size="14.00">DistributorRole</text>
<text text-anchor="middle" x="831.52" y="-1327.1" font-family="Times,serif" font-size="14.00">contracts/coffeeaccesscontrol/DistributorRole.sol</text>
<polyline fill="none" stroke="black" points="663.87,-1318.9 999.17,-1318.9 "/>
<text text-anchor="start" x="671.87" y="-1302.3" font-family="Times,serif" font-size="14.00">Private:</text>
<text text-anchor="start" x="671.87" y="-1285.5" font-family="Times,serif" font-size="14.00"> &#160;&#160;distributors: Roles.Role</text>
<polyline fill="none" stroke="black" points="663.87,-1277.3 999.17,-1277.3 "/>
<text text-anchor="start" x="671.87" y="-1260.7" font-family="Times,serif" font-size="14.00">Internal:</text>
<text text-anchor="start" x="671.87" y="-1243.9" font-family="Times,serif" font-size="14.00"> &#160;&#160;&#160;_addDistributor(account: address)</text>
<text text-anchor="start" x="671.87" y="-1227.1" font-family="Times,serif" font-size="14.00"> &#160;&#160;&#160;_removeDistributor(account: address)</text>
<text text-anchor="start" x="671.87" y="-1210.3" font-family="Times,serif" font-size="14.00">Public:</text>
<text text-anchor="start" x="671.87" y="-1193.5" font-family="Times,serif" font-size="14.00"> &#160;&#160;&#160;&lt;&lt;event&gt;&gt; DistributorAdded(account: address)</text>
<text text-anchor="start" x="671.87" y="-1176.7" font-family="Times,serif" font-size="14.00"> &#160;&#160;&#160;&lt;&lt;event&gt;&gt; DistributorRemoved(account: address)</text>
<text text-anchor="start" x="671.87" y="-1159.9" font-family="Times,serif" font-size="14.00"> &#160;&#160;&#160;&lt;&lt;modifier&gt;&gt; onlyDistributor()</text>
<text text-anchor="start" x="671.87" y="-1143.1" font-family="Times,serif" font-size="14.00"> &#160;&#160;&#160;constructor()</text>
<text text-anchor="start" x="671.87" y="-1126.3" font-family="Times,serif" font-size="14.00"> &#160;&#160;&#160;isDistributor(account: address): bool</text>
<text text-anchor="start" x="671.87" y="-1109.5" font-family="Times,serif" font-size="14.00"> &#160;&#160;&#160;addDistributor(account: address) &lt;&lt;onlyDistributor&gt;&gt;</text>
<text text-anchor="start" x="671.87" y="-1092.7" font-family="Times,serif" font-size="14.00"> &#160;&#160;&#160;renounceDistributor()</text>
</g>
<!-- 2&#45;&gt;6 -->
<g id="edge5" class="edge">
<title>2&#45;&gt;6</title>
<path fill="none" stroke="black" d="M753.18,-1360.88C731.24,-1399.35 708.78,-1438.73 691.83,-1468.45"/>
<polygon fill="black" stroke="black" points="688.67,-1466.94 686.75,-1477.36 694.75,-1470.4 688.67,-1466.94"/>
</g>
<!-- 2&#45;&gt;5 -->
<g id="edge4" class="edge">
<title>2&#45;&gt;5</title>
<path fill="none" stroke="black" d="M842.73,-1360.59C843.31,-1440.72 833.32,-1541.26 790.52,-1620 784.92,-1630.3 777.81,-1639.94 769.83,-1648.88"/>
<polygon fill="black" stroke="black" points="767.23,-1646.53 762.92,-1656.21 772.33,-1651.32 767.23,-1646.53"/>
</g>
<!-- 3 -->
<g id="node4" class="node">
<title>3</title>
<polygon fill="#f2f2f2" stroke="black" points="1016.88,-1084.5 1016.88,-1360.5 1310.16,-1360.5 1310.16,-1084.5 1016.88,-1084.5"/>
<text text-anchor="middle" x="1163.52" y="-1343.9" font-family="Times,serif" font-size="14.00">FarmerRole</text>
<text text-anchor="middle" x="1163.52" y="-1327.1" font-family="Times,serif" font-size="14.00">contracts/coffeeaccesscontrol/FarmerRole.sol</text>
<polyline fill="none" stroke="black" points="1016.88,-1318.9 1310.16,-1318.9 "/>
<text text-anchor="start" x="1024.88" y="-1302.3" font-family="Times,serif" font-size="14.00">Private:</text>
<text text-anchor="start" x="1024.88" y="-1285.5" font-family="Times,serif" font-size="14.00"> &#160;&#160;farmers: Roles.Role</text>
<polyline fill="none" stroke="black" points="1016.88,-1277.3 1310.16,-1277.3 "/>
<text text-anchor="start" x="1024.88" y="-1260.7" font-family="Times,serif" font-size="14.00">Internal:</text>
<text text-anchor="start" x="1024.88" y="-1243.9" font-family="Times,serif" font-size="14.00"> &#160;&#160;&#160;_addFarmer(account: address)</text>
<text text-anchor="start" x="1024.88" y="-1227.1" font-family="Times,serif" font-size="14.00"> &#160;&#160;&#160;_removeFarmer(account: address)</text>
<text text-anchor="start" x="1024.88" y="-1210.3" font-family="Times,serif" font-size="14.00">Public:</text>
<text text-anchor="start" x="1024.88" y="-1193.5" font-family="Times,serif" font-size="14.00"> &#160;&#160;&#160;&lt;&lt;event&gt;&gt; FarmerAdded(account: address)</text>
<text text-anchor="start" x="1024.88" y="-1176.7" font-family="Times,serif" font-size="14.00"> &#160;&#160;&#160;&lt;&lt;event&gt;&gt; FarmerRemoved(account: address)</text>
<text text-anchor="start" x="1024.88" y="-1159.9" font-family="Times,serif" font-size="14.00"> &#160;&#160;&#160;&lt;&lt;modifier&gt;&gt; onlyFarmer()</text>
<text text-anchor="start" x="1024.88" y="-1143.1" font-family="Times,serif" font-size="14.00"> &#160;&#160;&#160;constructor()</text>
<text text-anchor="start" x="1024.88" y="-1126.3" font-family="Times,serif" font-size="14.00"> &#160;&#160;&#160;isFarmer(account: address): bool</text>
<text text-anchor="start" x="1024.88" y="-1109.5" font-family="Times,serif" font-size="14.00"> &#160;&#160;&#160;addFarmer(account: address) &lt;&lt;onlyFarmer&gt;&gt;</text>
<text text-anchor="start" x="1024.88" y="-1092.7" font-family="Times,serif" font-size="14.00"> &#160;&#160;&#160;renounceFarmer()</text>
</g>
<!-- 3&#45;&gt;6 -->
<g id="edge7" class="edge">
<title>3&#45;&gt;6</title>
<path fill="none" stroke="black" d="M1037.37,-1360.85C1027.96,-1368.5 1018.3,-1375.7 1008.52,-1382.2 942.33,-1426.16 859.76,-1459.32 792,-1481.88"/>
<polygon fill="black" stroke="black" points="790.52,-1478.68 782.12,-1485.13 792.71,-1485.33 790.52,-1478.68"/>
</g>
<!-- 3&#45;&gt;5 -->
<g id="edge6" class="edge">
<title>3&#45;&gt;5</title>
<path fill="none" stroke="black" d="M1065.99,-1360.75C1004.21,-1441.91 919.41,-1543.45 830.52,-1620 818.03,-1630.76 804.28,-1641.11 790.19,-1650.82"/>
<polygon fill="black" stroke="black" points="788.18,-1647.96 781.87,-1656.47 792.11,-1653.75 788.18,-1647.96"/>
</g>
<!-- 4 -->
<g id="node5" class="node">
<title>4</title>
<polygon fill="#f2f2f2" stroke="black" points="0,-1084.5 0,-1360.5 301.04,-1360.5 301.04,-1084.5 0,-1084.5"/>
<text text-anchor="middle" x="150.52" y="-1343.9" font-family="Times,serif" font-size="14.00">RetailerRole</text>
<text text-anchor="middle" x="150.52" y="-1327.1" font-family="Times,serif" font-size="14.00">contracts/coffeeaccesscontrol/RetailerRole.sol</text>
<polyline fill="none" stroke="black" points="0,-1318.9 301.04,-1318.9 "/>
<text text-anchor="start" x="8" y="-1302.3" font-family="Times,serif" font-size="14.00">Private:</text>
<text text-anchor="start" x="8" y="-1285.5" font-family="Times,serif" font-size="14.00"> &#160;&#160;retailers: Roles.Role</text>
<polyline fill="none" stroke="black" points="0,-1277.3 301.04,-1277.3 "/>
<text text-anchor="start" x="8" y="-1260.7" font-family="Times,serif" font-size="14.00">Internal:</text>
<text text-anchor="start" x="8" y="-1243.9" font-family="Times,serif" font-size="14.00"> &#160;&#160;&#160;_addRetailer(account: address)</text>
<text text-anchor="start" x="8" y="-1227.1" font-family="Times,serif" font-size="14.00"> &#160;&#160;&#160;_removeRetailer(account: address)</text>
<text text-anchor="start" x="8" y="-1210.3" font-family="Times,serif" font-size="14.00">Public:</text>
<text text-anchor="start" x="8" y="-1193.5" font-family="Times,serif" font-size="14.00"> &#160;&#160;&#160;&lt;&lt;event&gt;&gt; RetailerAdded(account: address)</text>
<text text-anchor="start" x="8" y="-1176.7" font-family="Times,serif" font-size="14.00"> &#160;&#160;&#160;&lt;&lt;event&gt;&gt; RetailerRemoved(account: address)</text>
<text text-anchor="start" x="8" y="-1159.9" font-family="Times,serif" font-size="14.00"> &#160;&#160;&#160;&lt;&lt;modifier&gt;&gt; onlyRetailer()</text>
<text text-anchor="start" x="8" y="-1143.1" font-family="Times,serif" font-size="14.00"> &#160;&#160;&#160;constructor()</text>
<text text-anchor="start" x="8" y="-1126.3" font-family="Times,serif" font-size="14.00"> &#160;&#160;&#160;isRetailer(account: address): bool</text>
<text text-anchor="start" x="8" y="-1109.5" font-family="Times,serif" font-size="14.00"> &#160;&#160;&#160;addRetailer(account: address) &lt;&lt;onlyRetailer&gt;&gt;</text>
<text text-anchor="start" x="8" y="-1092.7" font-family="Times,serif" font-size="14.00"> &#160;&#160;&#160;renounceRetailer()</text>
</g>
<!-- 4&#45;&gt;6 -->
<g id="edge9" class="edge">
<title>4&#45;&gt;6</title>
<path fill="none" stroke="black" d="M279.58,-1360.53C289.36,-1368.31 299.38,-1375.62 309.52,-1382.2 378.88,-1427.2 465.39,-1460.75 535.52,-1483.26"/>
<polygon fill="black" stroke="black" points="534.72,-1486.68 545.31,-1486.37 536.83,-1480.01 534.72,-1486.68"/>
</g>
<!-- 4&#45;&gt;5 -->
<g id="edge8" class="edge">
<title>4&#45;&gt;5</title>
<path fill="none" stroke="black" d="M243.56,-1360.97C303.68,-1442.95 387.35,-1545.27 477.52,-1620 494.01,-1633.66 512.59,-1646.39 531.47,-1657.91"/>
<polygon fill="black" stroke="black" points="529.78,-1660.98 540.16,-1663.12 533.38,-1654.98 529.78,-1660.98"/>
</g>
<!-- 6&#45;&gt;5 -->
<g id="edge10" class="edge">
<title>6&#45;&gt;5</title>
<path fill="none" stroke="black" d="M657.97,-1561.02C656.88,-1584.84 656.53,-1615.68 656.92,-1643.99"/>
<polygon fill="black" stroke="black" points="656.93,-1644.37 661.04,-1650.3 657.15,-1656.37 653.04,-1650.44 656.93,-1644.37"/>
</g>
<!-- 5&#45;&gt;6 -->
<g id="edge11" class="edge">
<title>5&#45;&gt;6</title>
<path fill="none" stroke="black" stroke-dasharray="5,2" d="M669.89,-1656.37C670.51,-1628.76 670.37,-1597.15 669.48,-1571.33"/>
<polygon fill="black" stroke="black" points="672.96,-1570.87 669.07,-1561.02 665.97,-1571.15 672.96,-1570.87"/>
</g>
<!-- 8 -->
<g id="node8" class="node">
<title>8</title>
<polygon fill="#f2f2f2" stroke="black" points="1233.97,-1418.7 1233.97,-1619.5 1461.07,-1619.5 1461.07,-1418.7 1233.97,-1418.7"/>
<text text-anchor="middle" x="1347.52" y="-1602.9" font-family="Times,serif" font-size="14.00">&lt;&lt;Enum&gt;&gt;</text>
<text text-anchor="middle" x="1347.52" y="-1586.1" font-family="Times,serif" font-size="14.00">State</text>
<text text-anchor="middle" x="1347.52" y="-1569.3" font-family="Times,serif" font-size="14.00">contracts/coffeebase/SupplyChain.sol</text>
<polyline fill="none" stroke="black" points="1233.97,-1561.1 1461.07,-1561.1 "/>
<text text-anchor="start" x="1241.97" y="-1544.5" font-family="Times,serif" font-size="14.00">Harvested: 0</text>
<text text-anchor="start" x="1241.97" y="-1527.7" font-family="Times,serif" font-size="14.00">Processed: 1</text>
<text text-anchor="start" x="1241.97" y="-1510.9" font-family="Times,serif" font-size="14.00">Packed: 2</text>
<text text-anchor="start" x="1241.97" y="-1494.1" font-family="Times,serif" font-size="14.00">ForSale: 3</text>
<text text-anchor="start" x="1241.97" y="-1477.3" font-family="Times,serif" font-size="14.00">Sold: 4</text>
<text text-anchor="start" x="1241.97" y="-1460.5" font-family="Times,serif" font-size="14.00">Shipped: 5</text>
<text text-anchor="start" x="1241.97" y="-1443.7" font-family="Times,serif" font-size="14.00">Received: 6</text>
<text text-anchor="start" x="1241.97" y="-1426.9" font-family="Times,serif" font-size="14.00">Purchased: 7</text>
</g>
<!-- 7 -->
<g id="node10" class="node">
<title>7</title>
<polygon fill="#f2f2f2" stroke="black" points="187.02,-296.7 187.02,-1026.3 1476.02,-1026.3 1476.02,-296.7 187.02,-296.7"/>
<text text-anchor="middle" x="831.52" y="-1009.7" font-family="Times,serif" font-size="14.00">SupplyChain</text>
<text text-anchor="middle" x="831.52" y="-992.9" font-family="Times,serif" font-size="14.00">contracts/coffeebase/SupplyChain.sol</text>
<polyline fill="none" stroke="black" points="187.02,-984.7 1476.02,-984.7 "/>
<text text-anchor="start" x="195.02" y="-968.1" font-family="Times,serif" font-size="14.00">Public:</text>
<text text-anchor="start" x="195.02" y="-951.3" font-family="Times,serif" font-size="14.00"> &#160;&#160;owner: address</text>
<text text-anchor="start" x="195.02" y="-934.5" font-family="Times,serif" font-size="14.00"> &#160;&#160;upc: uint</text>
<text text-anchor="start" x="195.02" y="-917.7" font-family="Times,serif" font-size="14.00"> &#160;&#160;sku: uint</text>
<text text-anchor="start" x="195.02" y="-900.9" font-family="Times,serif" font-size="14.00"> &#160;&#160;items: mapping(uint=&gt;Item)</text>
<text text-anchor="start" x="195.02" y="-884.1" font-family="Times,serif" font-size="14.00"> &#160;&#160;itemsHistory: mapping(uint=&gt;string[])</text>
<text text-anchor="start" x="195.02" y="-867.3" font-family="Times,serif" font-size="14.00"> &#160;&#160;defaultState: State</text>
<polyline fill="none" stroke="black" points="187.02,-859.1 1476.02,-859.1 "/>
<text text-anchor="start" x="195.02" y="-842.5" font-family="Times,serif" font-size="14.00">Public:</text>
<text text-anchor="start" x="195.02" y="-825.7" font-family="Times,serif" font-size="14.00"> &#160;&#160;&#160;&lt;&lt;payable&gt;&gt; buyItem(_upc: uint) &lt;&lt;forSale, paidEnough, onlyDistributor&gt;&gt;</text>
<text text-anchor="start" x="195.02" y="-808.9" font-family="Times,serif" font-size="14.00"> &#160;&#160;&#160;&lt;&lt;event&gt;&gt; Harvested(upc: uint)</text>
<text text-anchor="start" x="195.02" y="-792.1" font-family="Times,serif" font-size="14.00"> &#160;&#160;&#160;&lt;&lt;event&gt;&gt; Processed(upc: uint)</text>
<text text-anchor="start" x="195.02" y="-775.3" font-family="Times,serif" font-size="14.00"> &#160;&#160;&#160;&lt;&lt;event&gt;&gt; Packed(upc: uint)</text>
<text text-anchor="start" x="195.02" y="-758.5" font-family="Times,serif" font-size="14.00"> &#160;&#160;&#160;&lt;&lt;event&gt;&gt; ForSale(upc: uint)</text>
<text text-anchor="start" x="195.02" y="-741.7" font-family="Times,serif" font-size="14.00"> &#160;&#160;&#160;&lt;&lt;event&gt;&gt; Sold(upc: uint)</text>
<text text-anchor="start" x="195.02" y="-724.9" font-family="Times,serif" font-size="14.00"> &#160;&#160;&#160;&lt;&lt;event&gt;&gt; Shipped(upc: uint)</text>
<text text-anchor="start" x="195.02" y="-708.1" font-family="Times,serif" font-size="14.00"> &#160;&#160;&#160;&lt;&lt;event&gt;&gt; Received(upc: uint)</text>
<text text-anchor="start" x="195.02" y="-691.3" font-family="Times,serif" font-size="14.00"> &#160;&#160;&#160;&lt;&lt;event&gt;&gt; Purchased(upc: uint)</text>
<text text-anchor="start" x="195.02" y="-674.5" font-family="Times,serif" font-size="14.00"> &#160;&#160;&#160;&lt;&lt;modifier&gt;&gt; onlyOwner()</text>
<text text-anchor="start" x="195.02" y="-657.7" font-family="Times,serif" font-size="14.00"> &#160;&#160;&#160;&lt;&lt;modifier&gt;&gt; verifyCaller(_address: address)</text>
<text text-anchor="start" x="195.02" y="-640.9" font-family="Times,serif" font-size="14.00"> &#160;&#160;&#160;&lt;&lt;modifier&gt;&gt; paidEnough(_price: uint)</text>
<text text-anchor="start" x="195.02" y="-624.1" font-family="Times,serif" font-size="14.00"> &#160;&#160;&#160;&lt;&lt;modifier&gt;&gt; checkValue(_upc: uint)</text>
<text text-anchor="start" x="195.02" y="-607.3" font-family="Times,serif" font-size="14.00"> &#160;&#160;&#160;&lt;&lt;modifier&gt;&gt; harvested(_upc: uint)</text>
<text text-anchor="start" x="195.02" y="-590.5" font-family="Times,serif" font-size="14.00"> &#160;&#160;&#160;&lt;&lt;modifier&gt;&gt; processed(_upc: uint)</text>
<text text-anchor="start" x="195.02" y="-573.7" font-family="Times,serif" font-size="14.00"> &#160;&#160;&#160;&lt;&lt;modifier&gt;&gt; packed(_upc: uint)</text>
<text text-anchor="start" x="195.02" y="-556.9" font-family="Times,serif" font-size="14.00"> &#160;&#160;&#160;&lt;&lt;modifier&gt;&gt; forSale(_upc: uint)</text>
<text text-anchor="start" x="195.02" y="-540.1" font-family="Times,serif" font-size="14.00"> &#160;&#160;&#160;&lt;&lt;modifier&gt;&gt; sold(_upc: uint)</text>
<text text-anchor="start" x="195.02" y="-523.3" font-family="Times,serif" font-size="14.00"> &#160;&#160;&#160;&lt;&lt;modifier&gt;&gt; shipped(_upc: uint)</text>
<text text-anchor="start" x="195.02" y="-506.5" font-family="Times,serif" font-size="14.00"> &#160;&#160;&#160;&lt;&lt;modifier&gt;&gt; received(_upc: uint)</text>
<text text-anchor="start" x="195.02" y="-489.7" font-family="Times,serif" font-size="14.00"> &#160;&#160;&#160;&lt;&lt;modifier&gt;&gt; purchased(_upc: uint)</text>
<text text-anchor="start" x="195.02" y="-472.9" font-family="Times,serif" font-size="14.00"> &#160;&#160;&#160;constructor()</text>
<text text-anchor="start" x="195.02" y="-456.1" font-family="Times,serif" font-size="14.00"> &#160;&#160;&#160;kill()</text>
<text text-anchor="start" x="195.02" y="-439.3" font-family="Times,serif" font-size="14.00"> &#160;&#160;&#160;harvestItem(_upc: uint, _originFarmerID: address, _originFarmName: string, _originFarmInformation: string, _originFarmLatitude: string, _originFarmLongitude: string, _productNotes: string)</text>
<text text-anchor="start" x="195.02" y="-422.5" font-family="Times,serif" font-size="14.00"> &#160;&#160;&#160;processItem(_upc: uint) &lt;&lt;harvested, onlyFarmer&gt;&gt;</text>
<text text-anchor="start" x="195.02" y="-405.7" font-family="Times,serif" font-size="14.00"> &#160;&#160;&#160;packItem(_upc: uint) &lt;&lt;processed, onlyFarmer&gt;&gt;</text>
<text text-anchor="start" x="195.02" y="-388.9" font-family="Times,serif" font-size="14.00"> &#160;&#160;&#160;sellItem(_upc: uint, _price: uint) &lt;&lt;packed, onlyFarmer&gt;&gt;</text>
<text text-anchor="start" x="195.02" y="-372.1" font-family="Times,serif" font-size="14.00"> &#160;&#160;&#160;shipItem(_upc: uint) &lt;&lt;sold, onlyDistributor&gt;&gt;</text>
<text text-anchor="start" x="195.02" y="-355.3" font-family="Times,serif" font-size="14.00"> &#160;&#160;&#160;receiveItem(_upc: uint) &lt;&lt;shipped, onlyRetailer&gt;&gt;</text>
<text text-anchor="start" x="195.02" y="-338.5" font-family="Times,serif" font-size="14.00"> &#160;&#160;&#160;purchaseItem(_upc: uint) &lt;&lt;received, onlyConsumer&gt;&gt;</text>
<text text-anchor="start" x="195.02" y="-321.7" font-family="Times,serif" font-size="14.00"> &#160;&#160;&#160;fetchItemBufferOne(_upc: uint): (itemSKU: uint, itemUPC: uint, ownerID: address, originFarmerID: address, originFarmName: string, originFarmInformation: string, originFarmLatitude: string, originFarmLongitude: string)</text>
<text text-anchor="start" x="195.02" y="-304.9" font-family="Times,serif" font-size="14.00"> &#160;&#160;&#160;fetchItemBufferTwo(_upc: uint): (itemSKU: uint, itemUPC: uint, productID: uint, productNotes: string, productPrice: uint, itemState: uint, distributorID: address, retailerID: address, consumerID: address)</text>
</g>
<!-- 8&#45;&gt;7 -->
<g id="edge13" class="edge">
<title>8&#45;&gt;7</title>
<path fill="none" stroke="black" d="M1370.22,-1418.46C1382.79,-1322 1385.57,-1174.39 1328.52,-1062.8 1324.04,-1054.04 1319.28,-1045.41 1314.25,-1036.9"/>
<polygon fill="black" stroke="black" points="1314.22,-1036.84 1307.69,-1033.78 1308,-1026.58 1314.53,-1029.63 1314.22,-1036.84"/>
</g>
<!-- 9 -->
<g id="node9" class="node">
<title>9</title>
<polygon fill="#f2f2f2" stroke="black" points="1384.97,-1063.3 1384.97,-1381.7 1612.07,-1381.7 1612.07,-1063.3 1384.97,-1063.3"/>
<text text-anchor="middle" x="1498.52" y="-1365.1" font-family="Times,serif" font-size="14.00">&lt;&lt;Struct&gt;&gt;</text>
<text text-anchor="middle" x="1498.52" y="-1348.3" font-family="Times,serif" font-size="14.00">Item</text>
<text text-anchor="middle" x="1498.52" y="-1331.5" font-family="Times,serif" font-size="14.00">contracts/coffeebase/SupplyChain.sol</text>
<polyline fill="none" stroke="black" points="1384.97,-1323.3 1612.07,-1323.3 "/>
<text text-anchor="start" x="1392.97" y="-1306.7" font-family="Times,serif" font-size="14.00">sku: uint</text>
<text text-anchor="start" x="1392.97" y="-1289.9" font-family="Times,serif" font-size="14.00">upc: uint</text>
<text text-anchor="start" x="1392.97" y="-1273.1" font-family="Times,serif" font-size="14.00">ownerID: address</text>
<text text-anchor="start" x="1392.97" y="-1256.3" font-family="Times,serif" font-size="14.00">originFarmerID: address</text>
<text text-anchor="start" x="1392.97" y="-1239.5" font-family="Times,serif" font-size="14.00">originFarmName: string</text>
<text text-anchor="start" x="1392.97" y="-1222.7" font-family="Times,serif" font-size="14.00">originFarmInformation: string</text>
<text text-anchor="start" x="1392.97" y="-1205.9" font-family="Times,serif" font-size="14.00">originFarmLatitude: string</text>
<text text-anchor="start" x="1392.97" y="-1189.1" font-family="Times,serif" font-size="14.00">originFarmLongitude: string</text>
<text text-anchor="start" x="1392.97" y="-1172.3" font-family="Times,serif" font-size="14.00">productID: uint</text>
<text text-anchor="start" x="1392.97" y="-1155.5" font-family="Times,serif" font-size="14.00">productNotes: string</text>
<text text-anchor="start" x="1392.97" y="-1138.7" font-family="Times,serif" font-size="14.00">productPrice: uint</text>
<text text-anchor="start" x="1392.97" y="-1121.9" font-family="Times,serif" font-size="14.00">itemState: State</text>
<text text-anchor="start" x="1392.97" y="-1105.1" font-family="Times,serif" font-size="14.00">distributorID: address</text>
<text text-anchor="start" x="1392.97" y="-1088.3" font-family="Times,serif" font-size="14.00">retailerID: address</text>
<text text-anchor="start" x="1392.97" y="-1071.5" font-family="Times,serif" font-size="14.00">consumerID: address</text>
</g>
<!-- 9&#45;&gt;8 -->
<g id="edge12" class="edge">
<title>9&#45;&gt;8</title>
<path fill="none" stroke="black" stroke-dasharray="5,2" d="M1417.27,-1382.01C1412.51,-1391.31 1407.78,-1400.54 1403.15,-1409.57"/>
<polygon fill="black" stroke="black" points="1400.01,-1408.02 1398.56,-1418.52 1406.24,-1411.21 1400.01,-1408.02"/>
</g>
<!-- 9&#45;&gt;7 -->
<g id="edge14" class="edge">
<title>9&#45;&gt;7</title>
<path fill="none" stroke="black" d="M1384.87,-1068.02C1383.09,-1066.26 1381.31,-1064.52 1379.52,-1062.8 1369.69,-1053.35 1359.63,-1043.93 1349.38,-1034.56"/>
<polygon fill="black" stroke="black" points="1349.21,-1034.4 1342.08,-1033.33 1340.33,-1026.33 1347.46,-1027.41 1349.21,-1034.4"/>
</g>
<!-- 7&#45;&gt;1 -->
<g id="edge15" class="edge">
<title>7&#45;&gt;1</title>
<path fill="none" stroke="black" d="M604.34,-1026.38C597.48,-1037.37 590.74,-1048.16 584.17,-1058.69"/>
<polygon fill="none" stroke="black" points="575.19,-1053.25 568.2,-1084.26 593,-1064.37 575.19,-1053.25"/>
</g>
<!-- 7&#45;&gt;2 -->
<g id="edge16" class="edge">
<title>7&#45;&gt;2</title>
<path fill="none" stroke="black" d="M831.52,-1026.38C831.52,-1035.8 831.52,-1045.08 831.52,-1054.16"/>
<polygon fill="none" stroke="black" points="821.02,-1054.26 831.52,-1084.26 842.02,-1054.26 821.02,-1054.26"/>
</g>
<!-- 7&#45;&gt;3 -->
<g id="edge17" class="edge">
<title>7&#45;&gt;3</title>
<path fill="none" stroke="black" d="M1047.63,-1026.38C1054.07,-1037.21 1060.39,-1047.85 1066.55,-1058.24"/>
<polygon fill="none" stroke="black" points="1057.66,-1063.82 1082.01,-1084.26 1075.72,-1053.1 1057.66,-1063.82"/>
</g>
<!-- 7&#45;&gt;4 -->
<g id="edge18" class="edge">
<title>7&#45;&gt;4</title>
<path fill="none" stroke="black" d="M351.62,-1026.56C337.33,-1038.66 323.26,-1050.76 309.52,-1062.8 309.02,-1063.23 308.53,-1063.67 308.03,-1064.1"/>
<polygon fill="none" stroke="black" points="300.8,-1056.48 285.57,-1084.38 314.88,-1072.07 300.8,-1056.48"/>
</g>
<!-- 7&#45;&gt;8 -->
<g id="edge20" class="edge">
<title>7&#45;&gt;8</title>
<path fill="none" stroke="black" d="M1290,-1026.58C1297.36,-1038.41 1304.22,-1050.48 1310.52,-1062.8 1365.62,-1170.57 1364.91,-1311.95 1357.3,-1408.39"/>
<polygon fill="black" stroke="black" points="1353.8,-1408.2 1356.47,-1418.46 1360.78,-1408.78 1353.8,-1408.2"/>
</g>
<!-- 7&#45;&gt;9 -->
<g id="edge19" class="edge">
<title>7&#45;&gt;9</title>
<path fill="none" stroke="black" d="M1322.33,-1026.33C1335.71,-1038.42 1348.81,-1050.59 1361.52,-1062.8 1366.87,-1067.94 1372.21,-1073.31 1377.49,-1078.82"/>
<polygon fill="black" stroke="black" points="1375.26,-1081.56 1384.67,-1086.43 1380.36,-1076.76 1375.26,-1081.56"/>
</g>
<!-- 10 -->
<g id="node11" class="node">
<title>10</title>
<polygon fill="#f2f2f2" stroke="black" points="613.15,-0.5 613.15,-259.7 1049.88,-259.7 1049.88,-0.5 613.15,-0.5"/>
<text text-anchor="middle" x="831.52" y="-243.1" font-family="Times,serif" font-size="14.00">Ownable</text>
<text text-anchor="middle" x="831.52" y="-226.3" font-family="Times,serif" font-size="14.00">contracts/coffeecore/Ownable.sol</text>
<polyline fill="none" stroke="black" points="613.15,-218.1 1049.88,-218.1 "/>
<text text-anchor="start" x="621.15" y="-201.5" font-family="Times,serif" font-size="14.00">Private:</text>
<text text-anchor="start" x="621.15" y="-184.7" font-family="Times,serif" font-size="14.00"> &#160;&#160;origOwner: address</text>
<polyline fill="none" stroke="black" points="613.15,-176.5 1049.88,-176.5 "/>
<text text-anchor="start" x="621.15" y="-159.9" font-family="Times,serif" font-size="14.00">Internal:</text>
<text text-anchor="start" x="621.15" y="-143.1" font-family="Times,serif" font-size="14.00"> &#160;&#160;&#160;_transferOwnership(newOwner: address)</text>
<text text-anchor="start" x="621.15" y="-126.3" font-family="Times,serif" font-size="14.00">Public:</text>
<text text-anchor="start" x="621.15" y="-109.5" font-family="Times,serif" font-size="14.00"> &#160;&#160;&#160;&lt;&lt;event&gt;&gt; TransferOwnership(oldOwner: address, newOwner: address)</text>
<text text-anchor="start" x="621.15" y="-92.7" font-family="Times,serif" font-size="14.00"> &#160;&#160;&#160;&lt;&lt;modifier&gt;&gt; onlyOwner()</text>
<text text-anchor="start" x="621.15" y="-75.9" font-family="Times,serif" font-size="14.00"> &#160;&#160;&#160;constructor()</text>
<text text-anchor="start" x="621.15" y="-59.1" font-family="Times,serif" font-size="14.00"> &#160;&#160;&#160;_owner(): address</text>
<text text-anchor="start" x="621.15" y="-42.3" font-family="Times,serif" font-size="14.00"> &#160;&#160;&#160;isOwner(): bool</text>
<text text-anchor="start" x="621.15" y="-25.5" font-family="Times,serif" font-size="14.00"> &#160;&#160;&#160;renounceOwnership() &lt;&lt;onlyOwner&gt;&gt;</text>
<text text-anchor="start" x="621.15" y="-8.7" font-family="Times,serif" font-size="14.00"> &#160;&#160;&#160;transferOwnership(newOwner: address) &lt;&lt;onlyOwner&gt;&gt;</text>
</g>
<!-- 10&#45;&gt;7 -->
<g id="edge21" class="edge">
<title>10&#45;&gt;7</title>
<path fill="none" stroke="black" d="M831.52,-259.93C831.52,-262.14 831.52,-264.36 831.52,-266.61"/>
<polygon fill="none" stroke="black" points="821.02,-266.62 831.52,-296.62 842.02,-266.62 821.02,-266.62"/>
</g>
</g>
</svg>
